<?xml version="1.0" standalone="no"?>
<!DOCTYPE svg PUBLIC "-//W3C//DTD SVG 20010904//EN"
 "http://www.w3.org/TR/2001/REC-SVG-20010904/DTD/svg10.dtd">
<svg version="1.0" xmlns="http://www.w3.org/2000/svg"
 width="260.000000pt" height="260.000000pt" viewBox="0 0 260.000000 260.000000"
 preserveAspectRatio="xMidYMid meet">
<metadata>
Created by potrace 1.14, written by Peter Selinger 2001-2017
</metadata>
<g transform="translate(0.000000,260.000000) scale(0.100000,-0.100000)"
fill="#000000" stroke="none">
<path d="M170 1380 c0 -635 3 -798 13 -795 6 3 109 34 227 71 202 62 318 97
585 179 103 31 666 204 910 280 247 76 375 115 475 146 58 17 108 34 112 38 6
5 -334 136 -951 367 -31 12 -256 97 -501 189 -245 93 -461 174 -480 181 -19 7
-113 42 -208 78 -96 36 -176 66 -178 66 -2 0 -4 -360 -4 -800z"/>
</g>
</svg>
